# xmcd
#
# Track frame offsets:
#	150
#	13905
#	28550
#	41165
#	53377
#	67335
#	79562
#	92725
#	103545
#	116490
#	128715
#	141250
#	153620
#	166100
#	178270
#	191752
#	201370
#	214007
#	226550
#	238392
#	249932
#	265180
#	277840
#
# Disc length: 3873
#
# Revision: 1
# Processed by: cddbd v1.5.1PL0 Copyright (c) Steve Scherf et al.
# Submitted via: audiograbber 1.81.02
# Normalized: r0:TDELIM( - )
#
DISCID=400f1f17
DTITLE=Various Artist - The R&B Hits of 1948
DYEAR=1948
DGENRE=R&B
TTITLE0=They Call It Stormey Monday - T-Bone Walker
TTITLE1=Thirty Five Thirty - Paul Williams
TTITLE2=Barnyard Boogie - Louis Jordan
TTITLE3=King Size Papa - Julia Lee
TTITLE4=Tomorrow Night - Lonnie Johnson
TTITLE5=Shuffle Boogie - Joe Lutcher
TTITLE6=Fine Brown Frame - Nellie Lutcher
TTITLE7=Keep a Dollar In Your Pocket - Roy Milton
TTITLE8=Sneaky Pete - Bullmoose Jackson
TTITLE9=You Sure Look Good To Me - Big Three Trio
TTITLE10=I Want a Bow-Legged Woman - Bullmoose Jackson
TTITLE11=Reet, Petite and Gone - Louis Jordan
TTITLE12=Good Rockin' Tonight - Wynonie Harris
TTITLE13=Long Gone -- Part 1 - Sonny Thompson
TTITLE14=Long Gone -- Part 2 - Sonny Thompson
TTITLE15=N-Temperaneous Boogie - Camille Howard
TTITLE16=Messin' Around - Memphis Slim
TTITLE17=That's What I Like - Julia Lee
TTITLE18=Pretty Mama Blues - Ivory Joe Hunter
TTITLE19=Groovy Movie Blues - Johnny Moores Three Blazers
TTITLE20=Run Joe - Louis Jordan
TTITLE21=Send For Me If You Need Me - The Ravens
TTITLE22=Lollipop Mama - Wynonie Harris
EXTD=Indigo Recording Ltd.
EXTT0=
EXTT1=
EXTT2=
EXTT3=
EXTT4=
EXTT5=
EXTT6=
EXTT7=
EXTT8=
EXTT9=
EXTT10=
EXTT11=
EXTT12=
EXTT13=
EXTT14=
EXTT15=
EXTT16=
EXTT17=
EXTT18=
EXTT19=
EXTT20=
EXTT21=
EXTT22=
PLAYORDER=
